{
  "accessors": {
    "accessor_index_0": {
      "bufferView": "bufferView_1",
      "byteOffset": 0,
      "byteStride": 0,
      "componentType": 5123,
      "count": 8232,
      "type": "SCALAR",
      "min": [
        0
      ],
      "max": [
        2804
      ]
    },
    "accessor_index_1": {
      "bufferView": "bufferView_1",
      "byteOffset": 16464,
      "byteStride": 0,
      "componentType": 5123,
      "count": 6,
      "type": "SCALAR",
      "min": [
        2805
      ],
      "max": [
        2808
      ]
    },
    "accessor_position": {
      "bufferView": "bufferView_0",
      "byteOffset": 0,
      "byteStride": 0,
      "componentType": 5123,
      "count": 2779,
      "min": [
        0,
        0,
        0
      ],
      "max": [
        65535,
        65535,
        65535
      ],
      "type": "VEC3",
      "extensions": {
        "WEB3D_quantized_attributes": {
          "decodedMin": [
            -0.7184569835662842,
            -0.0181450005620718,
            -1.3478800058364868
          ],
          "decodedMax": [
            4.3808369636535645,
            1.802909016609192,
            0.6521199941635132
          ],
          "decodeMatrix": [
            0.0000778102379983192,
            0,
            0,
            0,
            0,
            0.000027787503123083295,
            0,
            0,
            0,
            0,
            0.000030518043793392844,
            0,
            -0.7184569835662842,
            -0.0181450005620718,
            -1.3478800058364868,
            1
          ]
        }
      }
    },
    "accessor_normal": {
      "bufferView": "bufferView_0",
      "byteOffset": 16674,
      "byteStride": 0,
      "componentType": 5121,
      "count": 2779,
      "type": "VEC2",
      "min": [
        3,
        1
      ],
      "max": [
        254,
        255
      ]
    }
  },
  "asset": {
    "generator": "OBJ2GLTF",
    "premultipliedAlpha": true,
    "profile": {
      "api": "WebGL",
      "version": "1.0"
    },
    "version": "1.0"
  },
  "buffers": {
    "buffer_0": {
      "type": "arraybuffer",
      "byteLength": 38708,
      "uri": "data:application/octet-stream;base64,"
    }
  },
  "bufferViews": {
    "bufferView_0": {
      "buffer": "buffer_0",
      "byteLength": 22232,
      "byteOffset": 0,
      "target": 34962
    },
    "bufferView_1": {
      "buffer": "buffer_0",
      "byteLength": 16476,
      "byteOffset": 22232,
      "target": 34963
    }
  },
  "images": {},
  "materials": {
    "material_Material.001": {
      "name": "Material.001",
      "extensions": {},
      "values": {
        "ambient": [
          1,
          1,
          1,
          1
        ],
        "diffuse": [
          0.64,
          0.64,
          0.64,
          1
        ],
        "emission": [
          0,
          0,
          0,
          1
        ],
        "specular": [
          0.5,
          0.5,
          0.5,
          1
        ],
        "shininess": 96.078431,
        "transparency": 1
      },
      "technique": "technique0"
    },
    "material_None": {
      "name": "None",
      "extensions": {},
      "values": {
        "ambient": [
          0,
          0,
          0,
          1
        ],
        "diffuse": [
          0.8,
          0.8,
          0.8,
          1
        ],
        "emission": [
          0,
          0,
          0,
          1
        ],
        "specular": [
          0.8,
          0.8,
          0.8,
          1
        ],
        "shininess": 0,
        "transparency": 1
      },
      "technique": "technique0"
    }
  },
  "meshes": {
    "mesh_untitled": {
      "name": "untitled",
      "primitives": [
        {
          "attributes": {
            "POSITION": "accessor_position",
            "NORMAL": "accessor_normal"
          },
          "indices": "accessor_index_0",
          "material": "material_Material.001",
          "mode": 4
        },
        {
          "attributes": {
            "POSITION": "accessor_position",
            "NORMAL": "accessor_normal"
          },
          "indices": "accessor_index_1",
          "material": "material_None",
          "mode": 4
        }
      ]
    }
  },
  "nodes": {
    "rootNode": {
      "children": [],
      "meshes": [
        "mesh_untitled"
      ],
      "matrix": [
        1,
        0,
        0,
        0,
        0,
        1,
        0,
        0,
        0,
        0,
        1,
        0,
        0,
        0,
        0,
        1
      ]
    }
  },
  "samplers": {},
  "scene": "scene_untitled",
  "scenes": {
    "scene_untitled": {
      "nodes": [
        "rootNode"
      ]
    }
  },
  "textures": {},
  "extensionsUsed": [
    "WEB3D_quantized_attributes"
  ],
  "animations": {},
  "cameras": {},
  "techniques": {
    "technique0": {
      "attributes": {
        "a_position": "position",
        "a_normal": "normal"
      },
      "parameters": {
        "modelViewMatrix": {
          "semantic": "MODELVIEW",
          "type": 35676
        },
        "projectionMatrix": {
          "semantic": "PROJECTION",
          "type": 35676
        },
        "normalMatrix": {
          "semantic": "MODELVIEWINVERSETRANSPOSE",
          "type": 35675
        },
        "ambient": {
          "type": 35666
        },
        "diffuse": {
          "type": 35666
        },
        "emission": {
          "type": 35666
        },
        "specular": {
          "type": 35666
        },
        "shininess": {
          "type": 5126
        },
        "transparency": {
          "type": 5126
        },
        "position": {
          "semantic": "POSITION",
          "type": 35665
        },
        "normal": {
          "semantic": "NORMAL",
          "type": 35667
        }
      },
      "program": "program0",
      "states": {
        "enable": [
          2884,
          2929
        ]
      },
      "uniforms": {
        "u_modelViewMatrix": "modelViewMatrix",
        "u_projectionMatrix": "projectionMatrix",
        "u_normalMatrix": "normalMatrix",
        "u_ambient": "ambient",
        "u_diffuse": "diffuse",
        "u_emission": "emission",
        "u_specular": "specular",
        "u_shininess": "shininess",
        "u_transparency": "transparency"
      }
    }
  },
  "programs": {
    "program0": {
      "attributes": [
        "a_position",
        "a_normal"
      ],
      "fragmentShader": "fragmentShader0",
      "vertexShader": "vertexShader0"
    }
  },
  "shaders": {
    "vertexShader0": {
      "type": 35633,
      "uri": "data:text/plain;base64,"
    },
    "fragmentShader0": {
      "type": 35632,
      "uri": "data:text/plain;base64,"
    }
  },
  "skins": {},
  "extensions": {}
}
